# xmcd CD database file
# Copyright (C) 1997 Ti Kan
# 
# Track frame offsets:
#     150
#     16927
#     30867
#     47180
#     62795
#     79545
#     91552
#     108687
#     125882
#     143087
#     160677
# 
# Disc length: 2363 seconds
# 
# Revision: 1
# Processed by: cddbd v1.4b41PL1 Copyright (c) Steve Scherf et al.
# Submitted via: DiscPlay 4.0.4
# 
DISCID=8209390b
DTITLE=Far is Acesos - Far is Acesos
DYEAR=1900
DGENRE=
TTITLE0=O Fim De Semana
TTITLE1=O Rasta
TTITLE2=O 40
TTITLE3=Falsa Baiana
TTITLE4=A Armadilha (O casamento)
TTITLE5=A Fila
TTITLE6=A Baiana
TTITLE7=A Praia (Cocobeach)
TTITLE8=O Durango Kid
TTITLE9=Os Amantes
TTITLE10=Os Far is Acesos
EXTD=
EXTT0=
EXTT1=
EXTT2=
EXTT3=
EXTT4=
EXTT5=
EXTT6=
EXTT7=
EXTT8=
EXTT9=
EXTT10=
PLAYORDER=
